# xmcd CD database file
# Copyright (C) 1996 Ti Kan
#
# Track frame offsets:
#	150
#	17085
#	33522
#	46560
#	67972
#	90547
#	105692
#	117672
#	140372
#	155760
#	172367
#	194840
# Disc length: 2828 seconds
#
# Revision: 1
# Processed by: cddbd v1.4PL0 Copyright (c) Steve Scherf et al.
# Submitted via: CDCOPY 4.744
#
DISCID=aa0b0a0c
DTITLE=Wolfgang Michels - Orange Kindergarden
DYEAR=1900
DGENRE=
TTITLE0=Bring me water
TTITLE1=Lebenslange Reise
TTITLE2=Wie die Würfel fallen
TTITLE3=I call you my star
TTITLE4=Bei Mondschein (new ver)
TTITLE5=Sing this song together
TTITLE6=Ameurope
TTITLE7=Zukunft der Vergangenheit
TTITLE8=Kleiner Träumer
TTITLE9=You babe you got it hard
TTITLE10=Cause me pain
TTITLE11=Bring me water (acoustic ver)
EXTD=
EXTT0=
EXTT1=
EXTT2=
EXTT3=
EXTT4=
EXTT5=
EXTT6=
EXTT7=
EXTT8=
EXTT9=
EXTT10=
EXTT11=
PLAYORDER=
